<svg xmlns="http://www.w3.org/2000/svg" width="1440" height="228" fill="none"><g clip-path="url(#a)"><path fill="url(#b)" d="M893.481-5.266c-121.692 1.523-183.371-4.132-457.05-.517-73.24 0-145.423.388-218.054 3.77-55.658 0-109.939-1.188-165.277-1.885A495.254 495.254 0 0 1 .004-7.513v146.668H1441.1V-6.377c-78.27-2.97-154.39-1.91-231.12.594-73.21-10.922-150.36 4.777-224.942 0-24.306-3.95-66.258 5.681-91.557.517Z"/><path fill="url(#c)" d="M502.239 69.023c-117.265 8.986-234.466 10.329-353.014 10.329H.375v19.366c108.639-6.688 187.682 2.272 358.529 5.836 371.966 3.047 826.916-7.747 1084.476-9.942-334.07-26.105-757.531-17.481-941.141-25.59Z"/><path fill="url(#d)" d="M95.227 34.86c330.856-8.004 791.644-16.448 930.943-8.443 118.64-3.409 230.87 14.692 349.51 14.692-154.1 6.637-612.872 30.987-759.478 7.282-79.555-23.962-8.69 2.273-520.975-13.53Z"/><path fill="#5C6A8B" d="M45.524 44.621c66.537 4.338 134.036-2.71 196.468-7.281h121.851c85.648-4.88 185.598 6.403 259.734 16.37-196.724 22.543-408.873 29.076-598.35 29.076 9.363-3.047 16.994-8.702 24.819-12.73 5.323-12.911-.481-14.641-4.522-25.435Z"/><path fill="url(#e)" d="M.375-7.513v43.019C116.871 5.759 347.906 44.724 438.46.956c-13.756-.568-45.95-3.176-86.802-6.403-44.252.413-88.342 1.368-132.593 3.46-55.731 0-110.083-1.188-165.493-1.885A496.512 496.512 0 0 1 .375-7.513Z"/><path fill="url(#f)" d="M868.496 44.647c34.824 6.171 28.699-8.65 126.468-7.282 96.426-2.582 190.886 3.641 286.796 3.641 12.83-1.6 31.52 1.085 40.63 1.833-101.97 6.353-292.09-2.401-453.894 1.808Z"/><path fill="url(#g)" d="M1132.5 1.06C676.486.93 346.687 6.56.375 7.567v2.97C421.016 9.322 816.806.206 1443.34 7.411V2.919c-74.82-.86-146.56-1.412-215.22-1.653-32.48-.12-64.35-.189-95.62-.206Z"/><path fill="url(#h)" d="M.375 108.039v8.057c456.138-7.618 857.412-12.73 1442.965 2.582v-4.958C958.634 96.29 463.985 100.474.375 108.039Z"/><path fill="url(#i)" d="M.375 84.981v50.559a46.005 46.005 0 0 0 5.451 3.615h359.556c64.837-4.183 147.856-10.483 161.131-23.627-111.653-7.23-292.634-10.69-526.138-30.547Z"/><path fill="url(#j)" d="M957.832 15.52c198.298-16.887 370.238 1.808 478.748 1.808 3.94 4.544 1.5 9.709 2.24 14.563-78.27-14.77-264.19-4.235-480.988-16.371Z"/><path fill="#D3A6AD" d="M1441.1 55.518c-78.53 9.735-159.47 2.84-237.13 9.09 127.27 7.359 181.17 11.335 214.52 10.922 24.02-2.04 15.68-6.094 22.61-20.012Z"/><path fill="#7B7D9F" d="M567.172 64.608c37.742 2.582 73.752 2.71 110.66-3.641C756.361 46.3 836.719 62.8 912.683 62.8c-58.905 1.704-121.851-5.862-176.138 7.256-74.778 2.246-76.574 4.493-230.33 9.115 21.195-3.822 38.8-9.683 60.925-14.564h.032Z"/><path fill="url(#k)" d="M373.912 7.722c-126.276.155-248.319.284-372.318.31v.516c131.246-.026 260.728-.207 394.892-.207l-22.574-.62Z"/><path fill="url(#l)" d="M912.715 39.328c-24.028 0-47.768.043-71.218.129-33.798 0-70.834.232-103.638.439 1.443 1.575 3.207 3.46 4.65 5.474a35148.21 35148.21 0 0 1 218.048-.517 288.804 288.804 0 0 0-12.826-5.525h-35.016Z"/><path fill="url(#m)" d="M978.035 39.328a135.232 135.232 0 0 1 11.191 5.577c73.114 0 141.954.44 221.574 1.085-13.18-2.014-19.62-3.925-32.83-5.81-69.16-.465-135.8-.75-199.935-.852Z"/><path fill="url(#n)" d="M713.457 40.102c-66.857.44-131.983 1.033-196.051 1.73-1.55 2.069-3.462 3.947-5.676 5.578a43206.48 43206.48 0 0 1 200.316-1.756c.353-1.859.898-3.744 1.411-5.552Z"/><path fill="url(#o)" d="M1218.88 40.748c10.68 1.73 21.33 3.718 32.07 5.81 54.09.542 134.68 1.214 192.39 2.04v-5.526c-69.16-.981-160.33-1.73-224.46-2.324Z"/><path fill="url(#p)" d="M497.077 42.065c-70.257.8-139.519 1.73-208.429 2.711-9.876 2.066-21.003 4.08-32.066 5.965 75.355-1.084 151.031-2.117 227.668-3.021 4.233-1.91 8.562-3.77 12.827-5.655Z"/><path fill="url(#q)" d="M255.107 45.24c-75.58 1.085-151.576 2.196-228.726 3.254-8.915 1.162-17.22 2.35-26.006 3.538v2.35c72.982-1.007 144.297-2.04 215.644-3.073 13.05-2.092 26.23-4.132 39.088-6.068Z"/><path fill="url(#r)" d="M671.483 103.082c-226.193.361-446.967-.516-671.108 2.763v7.101c278.397-4.08 536.528-7.333 828.392-6.223-10.389-2.582 3.88-.284-6.413-2.582-52.396-2.841-104.696-1.343-150.871-1.059Z"/><path fill="url(#s)" d="M178.243 85.807c-7.456 9.528-5.568 21.535-13.312 30.986l-2.656-1.136c-2.272-4.028-5.472-8.547-9.888-9.993.2 2.169.028 4.35-.512 6.481a57.797 57.797 0 0 0-4.031-5.681 61.482 61.482 0 0 1-2.272 7.747c-.576.465-1.184.904-1.792 1.317V97.427c-3.2 6.636-7.776 13.479-8.864 20.864-3.2-4.132-4.8-8.883-13.216-10.045-1.76 3.28-3.2 6.481-5.28 9.993a45.73 45.73 0 0 0-2.56-1.342 19.57 19.57 0 0 1 2.496 1.471c-.48.878-.864 1.653-1.408 2.583h-3.968c-1.984 3.615-4.64 6.274-6.88 10.767a94.362 94.362 0 0 1-4.256-10.767h-.48c-2.368 4.105-5.664 8.056-7.936 12.291 1.248-3.667 3.008-7.205 1.888-11.259-4.311 3.221-8.145 6.835-11.424 10.768v-11.697h-4.256c-5.248 7.101-9.6 14.873-14.848 21.845 0-7.282.576-14.563-5.28-20.502H56.9c-.928 3.744-2.048 7.41-3.008 11.206-.944-3.579-2.438-7.049-4.448-10.328l-1.376.18c-2.657 3.77-4.547 7.858-5.6 12.111a72.827 72.827 0 0 1-3.04-10.587l-4.064.852a25.861 25.861 0 0 0-1.088 11.62c-1.635-3.373-4.518-6.258-8.256-8.263 1.504 3.976 4.352 7.54 3.808 12.911-4.462-4.073-9.906-7.368-16-9.684a154.78 154.78 0 0 0-13.824 5.681v90.17H1440v-86.451c-13.38-5.991-27.49-11.31-42.82-11.749-18.56 0-33.53-13.428-51.84-10.329-10.52.852-24.38 13.35-36.06 13.995-9.92-1.239-20.8 2.867-29.28-3.641-4.9-.387-32.29-3.744-42.82-5.551H1232c.28-.427.49-.877.64-1.343-3.42-2.143-7.71-3.822-9.34-1.42-.2.594-.42 1.162-.64 1.73.05-.608.27-1.198.64-1.73a3.8 3.8 0 0 0-.33-3.116c-.55-.977-1.51-1.765-2.71-2.229-1.83 1.988-3.2 2.582-2.37 5.784-.87-1.007-2.47-4.261-6.4-3.848-1.02 1.355-1.56 2.909-1.57 4.493a9.239 9.239 0 0 0-3.43.194c-1.11.278-2.13.759-2.97 1.407v-6.352a56.294 56.294 0 0 0-5.02 6.43h-1.03c-.51-5.333.18-10.697 2.05-15.829a92.993 92.993 0 0 0-6.11 15.829h-.35c-.74-6.791-.45-14.021-3.52-20.658-4.45-2.401-9.6-5.345-17.12-4.803-.58 1.674-1.8 3.157-3.49 4.235 1.7-.408 3.29-1.084 4.67-1.988 4.45 2.582 9.98 4.235 13.95 7.075v4.932c-3.61.254-7.06 1.328-9.95 3.099a78.334 78.334 0 0 0-4.26 8.108h-1.28c0-5.165.23-10.045-3.2-13.892.35 4.629.27 9.273-.25 13.892h-3.81c-1.34-4.494-3.61-8.772-6.72-12.653.7-1.265 1.44-2.582 2.24-3.822-1.06.878-2.11 1.808-3.2 2.738a183.366 183.366 0 0 0-16.8-17.534c5.78 5.976 10.88 12.363 15.23 19.083-3.5 3.608-6.05 7.755-7.49 12.188h-2.27a116.83 116.83 0 0 1-4.86-18.076 80.381 80.381 0 0 0 .45 18.076h-2.18c-2.37-5.165-5.12-10.536-9.79-13.892a55.05 55.05 0 0 1 5.79 10.328c-2.05 1.137-4.13 2.247-6.18 3.409-.4-2.742.15-5.521 1.57-8.031a53.862 53.862 0 0 0-6.4 8.108h-.51a77.813 77.813 0 0 1-2.14-6.3c.11 1.651.11 3.306 0 4.958a60.69 60.69 0 0 0-10.76.645 6.326 6.326 0 0 0-.19-3.228c-.34-1.053-.95-2.038-1.79-2.892-3.2-.258-4.45-.826-7.2 1.291l-7.2-.49c-1.82-2.944-1.6-4.08-5.98-3.538-2.34.827-5 2.221-1.57 6.43-1.08-.89-2.42-1.538-3.9-1.882a10.986 10.986 0 0 0-4.55-.081c-2.88-2.324-4.7-3.589-9.15 0-1.53-.902-3.35-1.42-5.24-1.489-1.89-.069-3.76.315-5.39 1.102h-.16c-.22-2.066.39-3.538-1.98-5.164-2.2.961-4.28 2.094-6.21 3.382l-1.53-.232c-.52-1.382-1.58-2.594-3.01-3.46-.29.336-2.85 1.239-1.98 2.582-1.96-2.117-1.41-2.995-5.6-2.892-.2.93.48 1.885 0 2.789-1.8 0-3.59-.155-5.41-.155.12-.869.3-1.731.54-2.582l-2.65 2.582-6.69.155c.23-2.325.79-4.62 1.66-6.843-2.39 2.069-4.33 4.453-5.73 7.049l-9.12.543c-1.15-2.73-2.83-5.293-4.99-7.592a22.987 22.987 0 0 0-2.56 4.932c-2.49-3.15-5.439-8.444-10.879-10.742.044 4.214-.745 8.407-2.336 12.42l-2.176-.49c.102-3.634-.76-7.244-2.528-10.587-2.98 2.617-5.529 5.533-7.584 8.676h-1.088c-1.968-4.947-2.93-10.118-2.848-15.312-2.336 3.666-5.216 9.011-8.32 12.911-1.088-3.822 0-4.984-5.12-6.688-1.914 2.29-3.221 4.874-3.84 7.591v-9.296c-2.784 1.446-12.288 6.585-14.72 10.716-1.212-5.357-3.596-10.498-7.04-15.183-1.824 4.7-2.304 9.735-5.76 14.28-1.088-2.789-.832-5.165-3.84-7.592-1.376 2.376-1.792 4.235-5.12 5.81-1.239-3.346-1.673-6.851-1.28-10.329-2.752 3.46-8.032 6.223-9.6 10.329a32.513 32.513 0 0 1-4.16-4.235 77.625 77.625 0 0 1 1.504 5.784 17.501 17.501 0 0 0-1.792-.387c-2.422.206-4.686 1.073-6.414 2.458-1.728 1.386-2.818 3.206-3.09 5.159-3.2-3.279-8.031-1.833-10.848 1.653-.055-2.325.581-4.628 1.856-6.714-4.607 1.029-8.893 2.833-12.575 5.294a22.108 22.108 0 0 0-1.568-7.075 50.697 50.697 0 0 1-2.208 7.333 38.634 38.634 0 0 1-6.912-.258c3.552-7.876 12.128-13.841 14.464-20.503-7.617 5.371-16.288 12.911-19.488 20.658.02-4.211 1.201-8.365 3.456-12.162-1.928.809-3.605 1.958-4.907 3.361-1.302 1.404-2.195 3.026-2.613 4.747-1.088.232-1.728 1.523-3.456.774a9.163 9.163 0 0 0-.608-5.164c-.64.336-3.2.284-2.848 2.789-.415-1.477-1.396-2.81-2.803-3.811-1.408-1.002-3.17-1.62-5.037-1.767a7.306 7.306 0 0 0 .856 3.59c.596 1.135 1.482 2.155 2.6 2.995a6.312 6.312 0 0 0-1.94 1.786 4.972 4.972 0 0 0-.876 2.268c-1.312-1.575-1.28-2.582-3.776-2.582-3.488 1.265-3.552 2.014-4.704 5.319a31 31 0 0 0-9.6-.258c2.112-.749 2.912-.491 3.2-3.021-1.464-.993-3.255-1.62-5.153-1.803-1.899-.184-3.823.084-5.535.77.69-1.883.908-3.858.64-5.81-2.976 1.058-5.792 1.343-6.4 4.803-.525-1.594-1.509-3.065-2.871-4.295-1.363-1.229-3.065-2.182-4.969-2.781a15.97 15.97 0 0 0-1.28 5.81c-2.944-.206-4.768-.619-7.2 1.524.685-1.044 1.093-2.192 1.198-3.37a7 7 0 0 0-.59-3.473c-1.637.053-3.219.489-4.554 1.255-1.335.765-2.366 1.828-2.966 3.057a6.524 6.524 0 0 0-.488-3.876c-.559-1.24-1.491-2.348-2.712-3.225-.448.646-2.976 3.822-2.208 6.094-4.928-1.601-9.056-3.847-10.112.181-3.2-2.143-6.4-3.099-9.92-.129 1.441-2.79 4.19-5.008 7.648-6.171-6.016 1.471-11.232 3.021-13.76 6.765h-1.216a37.919 37.919 0 0 0 .768-10.742c-.512 3.951-1.76 9.735-8.896 11.387h-.896c-.302-3.661.698-7.316 2.88-10.535-4.791 2.945-8.614 6.793-11.136 11.207h-.576c1.099-5.206 3.955-10.067 8.256-14.047-6.4 3.821-15.104 6.378-14.944 13.918-1.024-4.132-1.056-8.857-4.032-12.524 0 4.932.576 9.373-2.112 13.686l-1.696.49c-.768-1.394-.896-3.124-4.288-2.582a51.66 51.66 0 0 0-4.896 3.409l-8.288.671c-.493-1.79-1.722-3.392-3.488-4.545 6.976 2.582 8.672 1.575.576-2.788 2.144-2.299 4.352-2.583 2.88-6.482-5.088 1.214-6.08.517-6.912 6.017-4.096-7.437-.832-2.918-8.608-1.859.928 1.007 2.336 4.725 6.88 4.647 0 1.085-1.44 2.815-.576 4.184-2.112.516-3.968.542-5.792 1.032l-6.4-.903a1.557 1.557 0 0 1-.416-1.059c-1.92-.697-2.016-3.847-6.4-2.324 2.048-2.195 4.992-1.498 2.88-6.042-4.576 1.704-6.4.671-7.456 6.042-2.432.775-4.288.207-5.792 1.833l-4.032-.129c-2.464-1.368-4.992-1.626-10.304-1.239l-1.504 1.498-7.488.49a9.71 9.71 0 0 0-2.496-2.582c-.736.955-1.6 1.859-2.432 2.815h-1.664a65.485 65.485 0 0 0 1.216-8.986 68.93 68.93 0 0 0-7.36 9.45l-2.432.155a30.248 30.248 0 0 0-1.696-11c-.271 3.872-1.353 7.678-3.2 11.258h-.352c-.48-.8-.512-2.117-2.688-2.582-.8.904-1.44 1.808-2.144 2.582l-4.192.13a14.793 14.793 0 0 0-3.424-3.28 102.532 102.532 0 0 1-4 3.409h-4.96a27.941 27.941 0 0 1-.832-10.329 69.701 69.701 0 0 0-4.896 10.329h-4.224c-1.408-3.796-2.912-7.54-4.704-11.362.063 3.938-.964 7.837-3.008 11.413h-3.68a23.977 23.977 0 0 0-2.496-4.028c-1.056.878-2.848 2.582-4.832 4.157l-5.888.155c1.149-5.081 4.068-9.792 8.416-13.582-5.126 4.117-9.627 8.711-13.408 13.686h-1.824c-.224-.439-.448-.904-.704-1.369v.465c-1.467-2.361-2.275-4.952-2.368-7.592 0 3.331-.448 6.12-.8 9.193l-5.856.232c-1.414-1.18-3.228-1.998-5.216-2.35a8.091 8.091 0 0 0-1.728 2.583h-1.472l-3.648-2.583c-.704.904-1.568 1.86-2.368 2.918l-4.192.181c-.575-.62-1.152-1.239-1.728-1.937-.704.749-1.28 1.446-1.952 2.066h-3.2a6.11 6.11 0 0 1-.512-3.15c-1.92 1.162-3.967 2.35-6.015 3.408h-1.185a10.166 10.166 0 0 1-.575-4.622c-2.001 1.442-3.613 3.2-4.736 5.165-.293.169-.617.3-.96.387.03-3.39-.843-6.745-2.56-9.838-.48 3.796-.384 7.746-3.552 10.329h-2.304c-.192-1.55-.256-3.125-.544-4.7a64.226 64.226 0 0 0-2.464 4.441h-1.12a22.432 22.432 0 0 0-1.664-5.655c-.443 2.59-1.439 5.097-2.944 7.411-1.248 2.04-8.32-.155-10.56 1.782-1.216-.775-2.176-2.582-4.416-2.866-1.6 1.73-2.688 4.338-5.728 3.925v-5.681c-3.2 3.434-4.704 5.784-7.936 9.244.576-4.777 0-8.263 3.2-12.11-4.843 3.885-8.464 8.648-10.56 13.892.449-4.734.588-9.483.416-14.228-1.722 5.462-4.213 10.747-7.424 15.751 1.707-4.97 2.303-10.147 1.76-15.286-1.504 4.467-4.128 9.063-6.144 13.866-.199-5.39-.06-10.785.416-16.164h-.48c-5.632 2.272-8.256 7.514-10.528 12.601v-7.489c-1.792 3.176-3.2 6.559-7.936 8.186v-9.709h-.896c-4.461 2.991-7.687 7.008-9.248 11.516-1.12-3.382-1.824-7.746-4.832-10.328-.736 2.866-1.952 4.932-2.656 7.746-1.76-2.866-2.656-6.636-6.624-7.488a35.342 35.342 0 0 0-.416 7.746c-2.464-2.814-4.832-5.525-7.488-8.108a32.243 32.243 0 0 1 2.336 10.691c-4.064-4.235-3.2-7.747-10.112-7.54-.512.955-2.368 1.936-2.24 3.925-.832.129-4.448 0-5.984 1.807-1.696-1.859-.576-3.021-5.216-2.427 0-.594-.352-1.265.384-1.808 1.248-.206 2.72.465 3.712-.594a6.5 6.5 0 0 0 .348-3.417c-.194-1.147-.695-2.245-1.468-3.219-3.376.15-6.623 1.092-9.344 2.711-1.92-1.549-1.024-2.814-5.6-2.117-2.012 1.501-3.549 3.369-4.48 5.448-2.304-3.692-4.256-5.939-9.6-3.331 0 .569-1.28 2.738.384 3.616-2.464.877-4.32 1.136-5.984 3.331-1.184-1.266-1.056-2.867-3.2-3.616.928-2.762 1.952-4.699-1.504-5.474l-2.24.207c-1.219 1.293-2.111 2.767-2.624 4.338-3.2 1.42-4.448 1.859-4.096 5.164-1.472-1.368-2.048-2.866-5.248-2.711-.704-2.092.224-3.124-2.976-3.331-2.579 2.142-4.737 4.589-6.4 7.256-1.329-1.525-2.974-2.853-4.864-3.925-2.08 3.021-2.88 6.791-7.104 8.444a19.371 19.371 0 0 0-2.208-6.559c-1.795 1.184-3.313 2.618-4.48 4.235a22.578 22.578 0 0 1 1.28-6.043h-1.536a108.64 108.64 0 0 0-11.84 7.747c-.28-2.054-1.407-3.973-3.2-5.448-.96 1.549-1.216 2.969-3.744 4.234a32.768 32.768 0 0 0-2.432-6.687l-1.312-.62c-1.414 2.112-2.078 4.497-1.92 6.894-.992-3.976-3.2-7.746-4.32-11.671a49.606 49.606 0 0 1-4.224-4.106c-2.259 1.845-4.809 3.442-7.584 4.751-3.456-2.582-6.4-6.119-11.168-6.481a17.93 17.93 0 0 1-4.064 2.143c-.928-1.911-1.28-5.164-4.544-6.481-2.88 1.833-5.088 3.047-8.64 5.164 2.112-6.016 7.424-10.948 10.656-17.74-9.312 5.604-20.096 10.329-24.832 19.909-1.152-1.11-1.376-3.124-3.552-3.46-1.312 2.014-1.728 4.106-4.576 5.629-2.912-3.744-4.16-8.314-7.584-11.697-3.904 3.331-8.768 6.533-10.144 11.258a43.31 43.31 0 0 1 2.528-13.427c-5.6 2.143-7.104 6.326-12.16 9.528-1.152-9.657-.896-20.218 4.032-28.998v.052Zm378.367 31.761 1.024-.646c-.64-.774-.832-.284-1.024.646Zm564.86.749a21.83 21.83 0 0 0-1.25-6.301c.2 2.125.62 4.232 1.25 6.301Zm47.46-14.925-2.08.594a5.714 5.714 0 0 0 2.08-.594Zm18.62 10.483v10.665h-8.73c.18-2.004.71-3.977 1.56-5.862 1.97-1.976 4.4-3.61 7.17-4.803Zm-30.65.414c.83 1.497 1.63 2.995 2.3 4.544a343.242 343.242 0 0 1-3.68 5.784h-2.53a38.21 38.21 0 0 1 3.91-10.406v.078Zm-232.515 4.363c2.582.026 5.134.446 7.52 1.24-2.528.206-5.056.413-7.616.568v-1.808h.096ZM1136 123.533c0 .361.26.723.38 1.084h-.38c0-.361.19-.723.26-1.084h-.26Z"/><path fill="#60992D" d="M669.687 185.35c-1.536-7.387-.424-14.974 3.206-21.871 1.072 4.782 3.142 9.384 6.125 13.608 5.483 1.937 11.672 5.165 19.239 4.855-2.661-5.655-5.707-11.414-15.327-13.118 12.313 1.575 18.919 9.193 29.148 10.69-7.953-5.164-14.847-13.479-10.742-21.871 4.906 8.083 11.672 19.367 26.069 22.853 3.399-2.867 6.574-5.552 6.157-9.735 1.443 2.324 2.982 4.467 4.585 6.817 8.113 0 12.634.284 16.033 5.345a14.608 14.608 0 0 1 .77-6.817c7.046 2.49 14.576 3.975 22.254 4.39-4.938-4.158-8.979-8.341-17.669-9.735 3.724-3.299 8.407-5.801 13.628-7.282-10.293 1.085-19.079 1.627-27.608 5.345 1.305-3.122 1.828-6.422 1.539-9.709-2.918 2.582-5.355 5.552-10.742 6.791-1.892-5.164-3.72-10.896-9.973-15.054 0 .852-.449 9.425-3.206 13.118-.61-4.358-2.28-8.575-4.916-12.412-2.635-3.837-6.184-7.218-10.444-9.95a48.614 48.614 0 0 0-3.046 6.326c-1.472-1.858-2.438-3.946-2.836-6.127a12.699 12.699 0 0 1 .527-6.525c-5.766 4.23-10.687 9.151-14.59 14.589a44.747 44.747 0 0 1-.77-12.136c-2.853 4.958-6.798 9.864-6.894 15.493-2.501-4.726-3.206-10.69-11.511-12.162-1.065 4.99-3.704 9.676-7.664 13.608-.513-3.744-.353-7.359-3.848-10.69-1.603 2.272-4.297 6.326-6.125 9.244a41.243 41.243 0 0 1-1.539-15.493c-4.203 5.701-5.834 12.396-4.617 18.953-1.338 5.638-1.075 11.446.769 16.991-4.521-15.493-16.193-34.911-36.042-43.742 6.936 5.155 12.501 11.39 16.359 18.327 3.858 6.937 5.929 14.432 6.087 22.032-3.206-6.3-13.243-14.357-16.866-18.488 3.815 8.598 3.848 17.558 3.848 26.751a91.633 91.633 0 0 0-9.973.465c1.571 5.164 7.76 4.88 16.033 4.88-1.956 3.021 2.661 4.054 3.848 5.81 3.16-.441 6.092-1.617 8.433-3.383-1.571-5.835 1.058-6.248 4.618-9.244 9.62-.645 10.902 3.77 13.019 8.263.705-3.666 3.014-5.164 5.387-7.746 8.85.645 7.663 2.866 9.203 7.746h.064Z"/><path fill="#66A02F" d="M823.027 114.624c-2.212-4.132-.705-7.747.898-11.517-7.249 2.057-13.472 5.953-17.732 11.104-1.347-3.951-6.766-7.101-11.544-9.399.369 3.336-.235 6.696-1.764 9.812-2.636-3.732-6.273-6.943-10.646-9.399-5.291.49-6.124 5.164-6.22 5.551-8.113-2.582-7.985-5.525-7.985-10.328-5.996 4.519-8.048 11.258-10.646 15.829-5.419-3.77-12.826-5.165-20.394-6.843 3.495 3.176 3.528 6.92 3.528 10.664-2.983-2.066-7.664-1.988-11.512-2.969-3.207.981-1.187 2.582-1.764 3.847-9.62-.31-20.233 0-29.276.413a61.452 61.452 0 0 0 7.087 2.582c-15.745-.309-37.582-.284-49.671 1.292 4.49 1.007 8.017 2.091 11.512 2.995-20.971 4.39-39.249 11.129-60.316 14.512 17.123 2.995 30.751-1.033 45.245-3.848 5.099-1.162 9.812-1.962 15.071-2.969 1.161 2.826 2.967 5.453 5.323 7.746 5.836-.155 12.57-3.795 17.765-5.551v4.286c13.596-7.746 21.676-9.864 42.551-11.542-13.339 1.678-19.496 7.127-23.055 12.911 4.621-.598 9.106-1.747 13.307-3.409 1.186 2.866 2.405 5.345 3.559 8.108 9.299-5.836 15.809-14.667 20.394-19.65 1.892 7.566-2.244 14.563-6.22 20.941 5.355-2.117 9.78-4.699 14.205-6.842-.481 2.762-.353 5.37-.898 8.133 4.879-1.811 9.085-4.617 12.201-8.141 3.116-3.524 5.034-7.643 5.563-11.948 1.171 7.317-.38 14.748-4.457 21.355 10.101-7.463 20.426-14.331 35.497-18.36-14.429 3.357-14.558 10.329-16.033 17.094 5.377-1.818 11.063-2.976 16.867-3.434 4.101.544 7.847 2.202 10.614 4.7 2.469-4.39.449-7.953-1.764-11.517 7.375 2.118 10.389 6.301 13.307 9.812 4.201-4.26 3.56-8.676 3.56-13.246 6.413 4.338 6.734 8.831 9.62 13.685 4.906-4.286 13.564-7.746 19.528-11.103a52.346 52.346 0 0 0-3.559 11.956c9.459-3.099 15.487-5.939 25.652-8.134-3.719-1.808-7.664-.259-11.511-.414 9.363-8.908 12.217-18.385 7.984-28.636 2.341 7.359-2.726 12.679-7.984 18.385-1.251-10.716-5.452-22.981 5.322-31.632-14.686 6.714-10.998 16.372-16.032 24.376-4.329-4.57-6.157-8.934-10.646-13.246 0 4.518-5.259 7.746-9.78 11.103 4.232-4.777-4.265-17.068-6.189-7.746-2.245 2.762-8.273 4.957-9.78 5.99l1.218-7.359Z"/><path fill="#669F2F" d="M628.098 139.207h-.481c-5.644 2.272-8.273 7.514-10.55 12.601v-7.489c-1.796 3.176-3.206 6.559-7.952 8.186v-9.709h-.866c-4.49 2.982-7.736 7.002-9.299 11.516-1.122-3.382-1.828-7.746-4.842-10.328-.705 2.866-1.924 4.932-2.662 7.746-1.763-2.866-2.629-6.636-6.637-7.488a35.281 35.281 0 0 0-.417 7.746c-2.469-2.814-4.842-5.526-7.503-8.108a32.15 32.15 0 0 1 2.34 10.691c-4.072-4.235-3.206-7.747-10.1-7.54-.546.955-2.405 1.936-2.245 3.924-.866.13-4.489 0-5.996 1.808-1.732-1.859-.61-3.021-5.259-2.427 0-.594-.353-1.265.385-1.808 1.25-.206 2.725.465 3.751-.594a6.554 6.554 0 0 0 .336-3.416c-.194-1.145-.691-2.243-1.458-3.22-3.365.115-6.617 1.012-9.363 2.582-1.956-1.549-1.058-2.814-5.644-2.117-2.081 1.59-3.644 3.567-4.553 5.758-2.277-3.692-4.233-5.939-9.62-3.331 0 .568-1.283 2.737.385 3.615-2.437.878-4.329 1.136-5.997 3.331-1.186-1.265-1.058-2.866-3.206-3.615.93-2.763 1.956-4.699-1.507-5.474l-2.245.207c-1.222 1.292-2.115 2.767-2.629 4.338-3.207 1.42-4.425 1.859-4.105 5.164-1.475-1.369-2.052-2.866-5.259-2.711-.705-2.092.225-3.125-2.982-3.331-2.584 2.141-4.746 4.588-6.413 7.256-1.319-1.525-2.958-2.853-4.842-3.925-2.116 3.021-2.918 6.791-7.151 8.443a19.052 19.052 0 0 0-1.859-6.636c-1.8 1.184-3.32 2.618-4.49 4.235a23.947 23.947 0 0 1 1.411-6.12h-1.507a102.372 102.372 0 0 0-11.896 7.747c0-.413-.289-.827-.417-1.214.256 3.667.256 7.488.609 10.329 2.854-2.97 5.515-6.895 7.76-9.632 1.461 5.694 3.878 11.202 7.183 16.371 2.652-2.126 4.508-4.811 5.355-7.746 1.635 3.253 2.822 6.12 4.201 8.65 3.206-6.998 6.669-14.124 10.742-20.657-4.746 12.394-6.67 25.357-1.187 37.519 6.413-4.467 10.967-10.82 16.033-16.371-.417 3.847-1.026 8.289-1.796 12.033a54.268 54.268 0 0 0 5.355-7.205 27.807 27.807 0 0 1 1.796 7.747c4.586-.31 7.343-4.596 10.165-7.23.321 2.582 1.7 4.984 2.373 7.746a26.655 26.655 0 0 0 3.014 6.74 96.44 96.44 0 0 1 7.375-11.026c1.683-4.113 5.234-7.563 9.941-9.657-3.871 2.819-7.218 6.071-9.941 9.657-1.761 5.149-2.444 10.499-2.02 15.829 5.099-1.188 7.728-5.165 10.774-7.747a35.242 35.242 0 0 0 1.764 5.165c6.741-4.838 11.877-10.953 14.943-17.792.732 4.944.936 9.928.609 14.9 7.343-6.792 10.55-17.663 11.351-24.505.674 4.596 2.02 9.244 2.982 13.453 3.042-5.917 6.846-11.56 11.352-16.836-4.053 7.749-5.894 16.132-5.387 24.531 4.457-.672 5.996-2.892 8.946-4.313-1.775-3.682-2.583-7.621-2.373-11.568 3.656 0 5.355 1.937 7.76 3.383-3.944-4.416-1.924-8.444-.609-12.033 4.265.594 5.291 3.512 7.183 5.784a46.745 46.745 0 0 1 4.778-9.141c4.457 1.472 2.982 5.165 2.982 9.606 1.795-1.988 4.329-1.885 6.573-2.866-7.279-4.39-6.734-9.245-5.964-15.493 5.644 0 4.489 1.316 7.76 4.828a112.827 112.827 0 0 0 3.463-9.089c-.962 2.014-1.956 4.002-2.822 6.068 0-5.397-.224-10.845.417-16.164l-.096.439Z"/><path fill="#C6CC2E" d="M563.326 139.129c3.399-12.679 4.233-1.42 6.124 0 4.137-3.124 4.394.181 6.574 2.582.192 9.451-.77 7.024-4.393 4.622-1.173.984-2.618 1.731-4.217 2.18a13.186 13.186 0 0 1-4.986.402c-.898 7.05-4.65 5.939-9.62 5.939-.352-3.692-2.437-3.692-3.495-5.164-2.886 6.456-6.798 5.164-11.832 5.164-3.207-.387-1.187-3.976-1.764-5.939-1.764 16.888-15.584 12.911-21.933 6.585 1.443-7.566-1.09-6.585-6.413-6.585-1.09-9.399 2.148-9.192 7.471-9.192 5.612-.517 5.195-9.451 13.147-11.852 3.399.981 6.67 5.009 9.62 7.23a31.91 31.91 0 0 0 5.259-3.925c-.225-12.911 6.862-10.329 12.826-8.573 3.431 2.169 2.501 4.803 2.213 9.218 1.956.723 3.816 2.453 5.707 7.23l-.288.078Z"/><path fill="#D6DC3D" d="M526.802 137.167c-6.669-10.949.93-6.895 4.297-4.7 1.123-6.61 3.431-6.662 5.868-7.023 3.207-9.735 9.62-9.554 9.62 1.756 5.387-9.761 10.101-5.165 12.089 5.861-2.469 1.498-4.553 0-6.638-.594-.833 7.385-4.104 6.533-8.593 5.862-3.463 9.167-8.626 4.183-6.606-5.862-2.79 10.613-7.054 7.024-10.165 4.7h.128Z"/><path fill="#C6CC2E" d="M541.135 169.806c8.882-2.892 5.547-3.693 14.846 2.246 1.668 5.836-4.136 2.944-6.413 4.519 7.503 5.552 0 6.869 0 9.038-3.591 12.188-8.305 10.07-16.29 7.54-13.403 3.486-21.035.929-13.467-9.787-11.255 10.019-20.907 4.803-14.847-6.791 1.315-11.542 6.574-7.385 12.827-2.995 3.431-6.404 7.311-.723 7.792-.749 6.413-5.862 7.92-6.636 15.584-3.021h-.032Z"/><path fill="#74A928" d="M1023.28 151.756c1.7-1.059 6.41-.258 5.32-3.305 3.21.309 13.76 1.471 19.75-.284-4.13-4.08-8.85-7.747-16.96-7.489 7.73.388 14.91 1.627 15.52-3.486-4.71-1.944-9.86-3.112-15.14-3.434.26-1.482.26-2.985 0-4.467-6.18.465-10.51.387-13.43 4.648-.52-6.193.39-12.41 2.69-18.334-4.33 5.542-7.88 11.458-10.58 17.637-1.38-10.329-2.15-18.644-10.1-27.914 4.28 3.835 6.69 8.788 6.79 13.944.09 5.155-2.14 10.164-6.28 14.099a28.838 28.838 0 0 0-5.352-1.963c.577-3.279 0-6.636 1.892-9.786-3.367 1.652-8.562 3.15-9.299 7.049-.738-5.603-1.122-10.019 3.816-14.693-6.221 1.911-9.075 4.932-11.416 10.329-.577-4.338-2.309-12.446.257-17.481-6.221 7.23-9.46 12.627-5.516 21.2-1.731 1.213-5.226.852-5.258 3.744-2.213-3.125-2.213-5.862-9.107-5.965-1.411 1.343-5.323 2.014-3.014 6.12 4.297 2.582 5.74 1.523 4.617 6.042-5.996.439-10.004.671-12.826 3.847-2.309-3.537-3.912-6.662-10.037-8.392.706-1.472 4.073-5.474.77-8.547-5.548 1.162-8.915 1.472-13.372 5.165a57.225 57.225 0 0 0-12.506 2.194l-.481-3.64a67.695 67.695 0 0 0-14.141 4.26c-.897-3.279 0-3.976-5.162-5.164-1.539 2.737-2.918 4.906-4.714 7.746 2.213 1.033-8.882-12.291-20.554-15.157 4.942 4.457 7.74 10.191 7.888 16.164-2.918-1.007-5.387-1.885-8.658-2.737-5.483-.8-7.664 1.162-10.582 2.195 2.309 3.615 9.877 3.925 12.057 4.287-6.413 1.446-5.836 3.434-6.798 6.61a64.004 64.004 0 0 0 16.033.594c-13.115-1.472-17.315 4.261-16.289 12.007 6.994-.176 13.703-2.271 19.015-5.939.321 2.582.705 5.319.737 5.681 7.087 0 11.801-3.77 15.584-7.953.546 3.124 4.137 3.718 6.414 5.164 1.09-2.117 5.868-4.493 8.176-5.81 1.315-4.26-.609-3.951-5.9-6.016 15.007.852 24.274 7.565 30.848 15.854a20.918 20.918 0 0 1 1.475-8.159c1.058 3.124 5.74 5.164 7.984 7.204-1.892-4.932 1.668-7.747 5.516-11.465-.257 3.047 2.372 5.397 4.264 8.082 1.379-7.256 10.101-11.155 17.252-14.486-5.708 4.183-4.618 8.47-3.912 13.892 3.463-5.5 9.62-8.624 16.353-11.619 1.273 3.156 3.41 6.041 6.253 8.443 4.867-1.186 9.083-3.684 11.933-7.075 1.53 6.094 10.39 5.345 18.15 6.662l.03-.103Z"/><path fill="#CBD8A8" d="M719.358 131.951c-1.7-5.784-1.956-6.017-6.702-4.726a26.43 26.43 0 0 0-.801-6.507c-.578.155-3.207-2.582-3.945 1.162-9.94-6.817-4.713 7.101-4.713 7.101-2.02-1.084-5.131.956-5.9 1.188-4.81-2.427-4.746-2.221-4.746 4.726 1.315 1.652 2.918 1.6 4.329 2.375a25.995 25.995 0 0 0 3.559 4.132 58.973 58.973 0 0 1 5.9-2.944 63.084 63.084 0 0 0 6.702 3.538 16.45 16.45 0 0 0 5.605-.878c1.769-.61 3.357-1.517 4.656-2.66 1.539 4.106 2.982 3.538 6.413 3.538a44.938 44.938 0 0 0 6.702-5.32l3.944 2.97c3.207-1.136 2.084-6.791 2.341-7.747-3.207-4.08-5.804-3.512-9.459-2.969-4.971-7.747-9.62-3.254-13.789 2.969l-.096.052Z"/><path fill="url(#t)" d="M839.927 148.141c-1.571-2.35-2.694-4.725-4.938-1.653-1.571-4.363-2.565-7.746-6.029-7.746-.192-2.789.289-4.183-1.346-5.758-1.988-.568-5.323-2.092-7.408 2.065-1.507 1.524-2.404-1.626-3.206 3.28-1.315-.878-1.828-2.376-3.816-1.627-.545-1.601.417-4.416-1.667-4.932-1.572.465-2.63-.413-4.105 2.453-1.347 1.498-5.034.671-4.104 6.559-2.437-.31-5.644 3.279-5.997 3.718-3.206 1.007-4.168 0-5.483 4.493 1.283 4.261 1.956 4.545 4.65 5.345 2.693.801 4.232-.697 6.413-2.866 1.178 1.848 3.149 3.289 5.547 4.054a17.696 17.696 0 0 1 9.011.413c1.813.755 3.856 1.078 5.889.932 2.033-.146 3.972-.756 5.59-1.758 5.42 10.174 25.589-.413 10.999-6.972Z"/><path fill="#DCDFE3" d="M768.709 150.026c1.507-2.995 3.527-1.653 6.028-1.446 2.822-3.021 5.708-.491 8.466 1.446.93-8.805 6.413-.232 7.952 2.169-1.154 3.977-2.79 3.641-5.291 3.641-4.136 4.312-7.151 4.235-10.389 0-4.397 1.821-9.495 2.209-14.238 1.084-3.976 1.137-6.413 3.9-7.952-1.807.834-5.552 3.88-4.467 6.991-4.002 1.09-7.101 5.355-3.151 8.433-1.085Z"/><path fill="#DCDFE3" d="M774.994 137.709c.449-8.624 4.489-4.596 5.066-4.338 1.508.068 2.947.528 4.103 1.31 1.156.782 1.967 1.844 2.311 3.028 4.457-.284 4.617 3.021.481 4.725-.257 4.855-2.181 4.003-5.067 3.616-3.784 3.563-4.617 3.279-6.028-1.446-7.247 4.028-7.119-3.177-.962-6.895h.096Zm33.445 6.765c1.539 5.01 3.559 3.383 6.188 2.324 1.604 3.409 3.207 4.622 5.516 5.32 2.052.284 3.206-1.73 4.649-3.331a58.362 58.362 0 0 0 6.221 2.995c2.084-.413 3.367-3.099 4.425-4.648 2.117-11.103 9.909-1.059 5.74 3.641 3.559 5.836 1.571 12.911-3.752 5.991-.609 4.286-2.95 2.866-4.874 1.988-1.058-1.601-2.565-2.092-3.751-2.995-.738 7.152-6.863 11.31-6.863 2.324-1.988.723-3.559-.362-5.098-.982-2.405.491-3.752-2.582-3.976-2.995-3.207 7.256-11.961-4.648-5.997-4.648-1.346-4.545-.32-4.131 1.572-4.984Z"/><path fill="#D8DCDA" d="M716.214 147.392c2.565 1.73 4.232 3.718 7.086 0 2.694 0 3.528 0 5.291-2.582.161 0 1.379 2.866 2.117 1.601 3.687 0 3.206.8 3.912-4.235 1.571-.361 3.206.801 4.585-1.084-.843-2.065-2.03-4.028-3.527-5.836a6.924 6.924 0 0 0-2.662-.524c-.926 0-1.839.18-2.661.524-3.624-1.472-4.233-2.918-5.644 3.718-2.469-6.765-3.719-2.375-5.323 0-6.862.491-4.617 4.597-3.206 8.496l.032-.078Z"/><path fill="#CBD8A8" d="M681.52 154.338c1.796-1.678 3.784 1.136 4.585 1.369 2.886-2.582 4.81-.749 7.344 0 .865.258.897 2.298 1.378 3.46 5.099-1.162 6.414 1.498 9.171 6.171a21.072 21.072 0 0 1-5.515.698c-1.603 3.873-3.399 2.763-6.413 2.763-3.207 4.493-4.618-.491-6.413-.698-2.566 1.343-2.437-2.582-3.207-3.434-2.629 7.747-3.848 6.894-6.413 0-6.413 7.747-16.033 2.169-4.361-3.434 1.443-9.709 4.329-9.374 9.876-6.895h-.032Z"/><path fill="#B9CA89" d="M631.176 128.155c-1.572 0-1.251 1.885-2.437 6.791-6.862-4.596-9.62 1.807 2.661 6.352 4.393-.645 6.413 1.085 7.439-5.577 2.662-2.841 4.265 4.131 3.72-3.977-1.122-.31-3.399-5.345-5.836-1.601a25.437 25.437 0 0 0-5.547-1.988Zm21.58 8.159a1.18 1.18 0 0 0-.641.207c-4.618.697-6.093-.465-7.44 6.378-13.499 2.014 2.277 14.28 4.778 5.578 3.495 0 4.457 1.007 6.413-3.177 4.201 0 4.875 2.712 5.837-4.002-1.283-.594-2.886-4.209-5.323-2.376-.61-.335-2.149-2.711-3.624-2.608Z"/><path fill="#D8DCDA" d="M667.347 145.481c.513-8.443.93-7.746 6.413-8.624-.075-.88.267-1.751.957-2.436s1.678-1.134 2.763-1.257c3.206-1.11 2.373 3.151 3.687 4.907.941-.779 2.109-1.355 3.397-1.675a9.928 9.928 0 0 1 3.979-.159c4.393 5.836 0 3.589 0 6.146 5.515-1.601 5.483-.207 7.375 5.552a30.64 30.64 0 0 1-9.011-.62c-2.18 2.195-4.425.904-6.573.62-7.568 3.486-6.414-.388-7.792-4.313-2.02 4.958-2.886 1.007-5.323 1.834l.128.025Z"/><path fill="#B9CA89" d="M767.905 115.295c3.206-1.833 3.206.749 5.323 2.583 3.206-.904 4.81 2.582 6.156 3.692-.449 4.751-3.206 3.899-4.521 4.312-2.18 3.59-4.008 2.169-6.157 1.834-6.669 2.711-5.579-1.575-6.573-4.932.866-5.965 1.763-5.578 5.772-7.385v-.104Z"/><path fill="#D4DACE" d="M935.964 165.002c-2.405-2.401-4.168-4.518-7.247-4.441 0-1.162 1.54-3.176.321-5.448-6.028-3.305-10.518-5.578-16.835-1.989-.416-.826 1.283-3.253-1.314-2.582a8.995 8.995 0 0 0-4.238-.232c-1.41.262-2.691.855-3.683 1.704-6.958-3.796-1.186-2.117-3.623 1.988-2.854-.129-3.752 4.235-3.944 4.442-.385 3.382 1.796 4.235 2.309 5.448-4.874-4.803-6.702-1.988-9.62 4.467 2.501 6.791 6.124 7.308 9.62 3.46 2.469 2.867 4.008 4.442 7.567 4.442 4.361-3.564 4.361-5.552 3.976-11.388l3.207-.49c.224 6.507 0 7.152 3.207 9.399 2.469 0 4.329-2.84 6.252-4.932 2.534 7.747 5.58 6.455 8.915 4.932 6.702.645 7.599-2.918 4.938-8.909l.192.129Zm10.904-14.847c4.072-4.829 3.591-5.164 6.926 1.007 3.848-1.497 4.553 0 6.573 3.951-.32 3.641-1.827 1.523-2.95 2.582-2.308 3.667-2.116 2.582-4.97.981-1.731 5.165-8.273 1.111-8.561 1.007-.481-3.408.897-3.666.994-3.976-4.201-5.294-2.886-7.437 1.988-5.449v-.103Z"/><path fill="#DCDFE3" d="M858.652 172.388c-1.123-5.759 1.603-6.146 4.81-5.165.369-1.101 1.067-2.112 2.034-2.945.968-.832 2.174-1.462 3.513-1.832 2.854-.181 2.725 2.298 3.72 4.777 0-5.526 2.084-5.164 5.066-5.164.962-6.456 3.688-5.165 7.696-5.165 3.431 1.653 3.687 5.836 4.489 9.968 2.79-1.369 4.81.671 6.125 1.988-.545 7.333-4.714 8.082-8.498 5.577-2.02 8.599-6.413 1.653-6.894-4.777h-2.405c4.105 10.846-5.644 11.827-9.01 6.766-4.426 6.249-10.133 3.615-10.646-3.977v-.051Z"/><path fill="#BED1A0" d="M443.56 161.13c3.624-5.862 1.828-4.003 6.734-4.752 1.507-1.859 2.982-2.22 4.521-3.382 5.003-5.294 6.157-1.446 9.011 4.079 3.431-4.415 7.054-2.298 9.011-2.039 3.623 2.324 2.34 2.143 2.693 7.436 2.309-3.098 7.183-1.42 7.664-1.342.481 5.913.288 3.098-3.207 5.396-3.367 8.702-8.433 4.984-11.255-.671.417 10.329-4.297 7.127-8.113 5.397-5.194 3.253-5.419 2.065-5.868-5.397-.705 9.296-3.751 7.514-8.561 6.068-10.165 2.117-12.57-6.352-2.694-10.793h.064Z"/><path fill="#C2CFA0" d="M849.833 132.571c3.207-2.273 4.233 2.866 5.451 4.88 2.074.515 4.252.699 6.414.542.625-1.158 1.733-2.104 3.132-2.674a8.21 8.21 0 0 1 4.531-.45 18.932 18.932 0 0 1 1.796 5.448c4.169.439 5.323.155 6.894 5.423-.728 1.409-2 2.593-3.629 3.374-1.629.782-3.527 1.12-5.413.964-.866.155-1.7-.723-2.534-1.085-4.713 7.127-6.413 3.254-6.413-2.169a46.13 46.13 0 0 1-4.329-2.169c-.833 5.784-2.757 5.5-6.156 6.507-2.598-2.117-.866-4.699-1.091-5.965-6.99-2.582-7.567-13.737 1.443-12.497l-.096-.129Z"/><path fill="#DCDFE3" d="M854.901 128.232c-.256-11.129 3.496-4.467 5.804-1.626 4.073-8.651 7.953-5.165 7.953 3.253 6.958.723 2.212 6.12 0 7.592-2.405 5.422-4.81 2.969-7.953 1.084-6.798 4.7-12.634-3.46-5.804-10.328v.025Z"/><path fill="#D6DC3D" d="M583.397 125.443c1.283-7.255 2.117-3.615 4.682-2.917 4.553-3.202 5.772-1.033 8.562 1.755.705 2.35-.802 3.59-1.155 5.165 9.043 2.427 11.127 9.27 2.726 10.535-3.624 4.364-4.586 1.911-7.023-1.756-6.413 1.033-5.579-1.033-7.407-4.673-7.728 4.338-8.177-8.212-.385-8.212v.103Z"/><path fill="#C6CC2E" d="M579.359 189.379c-2.63-9.064-2.662-10.148 5.675-12.911 6.798-4.183 6.157-1.291 10.614 2.272 6.221-2.789 9.973.62 13.436 2.246 4.489 4.209-.641 6.766-.706 7.54-6.124 5.346-7.856 1.989-12.024 0-.77 7.411-3.912 5.604-9.909 7.515-11.223 11.697-22.061 2.091-7.086-6.766v.104Z"/><path fill="#4D8741" d="M437.849 131.615c0 19.392 1.315 37.726-6.958 55.853-1.924-8.935-3.495-18.256-6.092-27.139-2.886 8.65-7.472 18.488-8.69 27.939 0-19.134-.417-38.733 4.361-55.878-8.461 20.306-14.895 41.125-19.24 62.256-4.65-14.253-1.956-33.723-2.597-50.275-1.475 16.087-5.291 32.742-6.67 49.552.499 6.349.402 12.719-.289 19.057a130.506 130.506 0 0 1 .289-19.057c-1.315-17.068-7.119-34.214-19.432-47.151 8.786 19.315 7.664 45.292 2.629 66.208 0-14.667.546-28.843-5.226-42.271a90.964 90.964 0 0 1-2.598-15.958c-3.206 8.444-8.305 17.611-10.453 26.313a153.18 153.18 0 0 1 1.731-26.313c-9.619 14.641-18.534 30.78-20.842 47.874-.546-.542-7.568-9.683-11.32-9.58a73.61 73.61 0 0 1-4.361 17.559c-1.988-10.019-4.008-20.657-9.62-29.54 0 10.613-2.212 14.512-9.619 23.24-.054-15.605 2.283-31.155 6.958-46.299-11.961 18.798-15.744 42.193-25.236 60.656a101.374 101.374 0 0 1-.866-32.717c-4.168 13.376-6.734 25.822-9.619 39.095-5.388-8.238-6.414-17.508-13.917-26.339 4.477 9.502 7.126 19.498 7.856 29.644h281.603c1.335-5.74 4.142-11.193 8.241-16.01-9.36.81-18.327 3.472-26.101 7.747 2.372-2.996 4.04-5.733 6.958-8.78 12.025-14.718 27.224-9.27 43.481-6.404-21.324-10.638-38.992-15.802-59.161-.671 11.287-13.815 29.564-18.333 46.078-26.338-22.093 0-42.006 6.533-59.995 19.134 8.141-7.744 13.546-17.109 15.648-27.113-6.413 8.96-16.033 18.075-27.801 20.657 1.817-4.674 4.771-9.01 8.69-12.756-5.74 2.118-13.147 3.047-17.412 8.78 2.79-8.521 7.375-12.601 7.824-21.536-7.407 5.552-21.484 13.299-29.565 21.536a95.236 95.236 0 0 0-3.463-22.336c-2.886 8.805-7.503 18.798-9.62 27.913 0-17.92-1.571-42.761-15.68-60.629l.096.077Z"/><path fill="#C6CC2E" d="M180.523 134.868c1.507-6.3 5.516-8.676 11.191-4.105 2.95-1.808 5.58-1.059 8.658-.827 2.437-2.582 5.772-1.42 8.658-1.213 5.034 2.582 2.116 4.57 1.507 6.145 9.459.801 5.772 4.313 2.052 6.559.641 5.164.193 6.378-3.559 9.425-5.996-.542-7.953-4.028-9.62-8.599-1.122 4.545-3.527 5.165-9.139 6.533-3.976-2.582-2.693-4.648-3.206-7.746-8.049 10.329-18.534-6.146-6.606-6.146l.064-.026Z"/><path fill="#BDC31C" d="M183.698 165.338c-3.207-7.152 3.206-7.359 10.197-7.359.288.775 1.315 2.582 1.507 2.866 3.559-7.54 10.261-7.178 14.269-2.866 6.125 1.369 6.414 2.273 7.632 6.533 7.439-.413 5.996 3.848 5.579 7.385a21.368 21.368 0 0 1-8.657.826c4.072 6.663-2.63 6.146-9.62 6.146-6.413 5.681-10.357 4.622-13.243 0-11.736 3.718-18.887-1.472-8.658-6.972-7.279-.878-8.882-8.16.994-6.559Z"/><path fill="#C6CC2E" d="M269.985 152.479c2.244-5.526 3.655-4.932 10.678-2.866 2.052-6.507 5.098-4.7 9.17-2.867 9.3.62 9.62 5.165 7.632 10.329 11.159 5.629 7.343 12.059-5.098 11.052-5.644 4.57-12.538 6.326-17.284 1.239-8.401 6.094-18.887.439-16.289-6.558 0-5.165 2.469-5.733 8.144-6.559-4.809-4.106 2.213-2.582 3.207-3.693l-.16-.077Z"/><path fill="#467B3E" d="M67.468 132.286c9.638 20.012 22.168 53.942 3.052 72.095 0-9.373 1.221-19.056-3.052-27.733 0 11.259-1.06 22.853-7.582 32.562 0-9.554-.546-19.083-1.51-28.404-1.96 9.864-2.41 20.167-6.843 29.798 0-20.115-1.831-37.984-12.851-56.137 1.927 19.264 3.502 43.562-10.635 58.229-.9-4.519-2.634-8.444-3.79-13.169-2.089 4.596-5.848 10.741-5.302 16.629-1.702-2.014-5.269-6.146-7.55-8.986C7.807 211.43 3.727 215.665 0 219.9v8.366h185.987a19.973 19.973 0 0 0 3.213-5.164 62.019 62.019 0 0 0 2.281-10.329 624.847 624.847 0 0 1-14.426 4.157c2.217-5.164 3.856-11 6.844-16.655h11.373c-4.594-1.91-7.711-4.957-13.654-4.131-8.482 3.434-18.345 7.746-22.779 16.629 3.438-15.493 17.092-26.467 12.144-44.362-3.212 15.7-10.505 28.817-25.059 38.733v-13.169c-2.956 3.589-6.811 6.223-9.863 10.329 2.602-11.93 4.979-19.651 15.1-26.571-7.904 4.183-16.064 6.584-21.944 14.099 0-8.263 1.896-13.815 1.543-22.207-2.828 2.892-7.936 6.171-9.125 11.8 0-11.542-.546-23.575.771-34.652-4.642 6.122-8.466 12.622-11.405 19.392-2.538-5.165-3.213-10.484-6.072-15.932-.996 4.57-1.799 9.631-3.02 14.537-4.594-10.871-7.743-22.594-14.425-32.561 2.12 19.392 17.638 42.245 4.562 65.846.075-23.394-8.478-46.28-24.578-65.769ZM151 177.888a48.822 48.822 0 0 0 5.397-3.254 55.633 55.633 0 0 0-5.397 3.254Z"/><path fill="#B7BC2A" d="M149.193 149.329c2.405-6.223 4.137-.646 5.997 0 6.413-3.744 6.605-2.092 11.287 0 1.09 1.833-.417 1.962-.673 3.202 9.363-.775 11.383 2.221 13.948 9.089a59.232 59.232 0 0 0-7.311 1.085c3.528 4.544-1.122 6.249-1.988 7.488-4.008.362-7.086-2.04-9.299-2.582-3.527 2.169-8.433 0-9.972 0v-3.848c-15.039 6.249-14.366-.258-8.626-6.403-4.425-4.881 1.058-4.7 1.315-5.888-1.764-4.596 4.136-1.678 5.322-2.143Z"/><path fill="#C6CC2E" d="M354.478 130.608c2.694-5.629 5.547-4.157 10.646-1.085 7.824-2.582 3.206 2.221 5.291 3.745 11.992-6.482 8.529 1.575 7.311 3.744 1.379 8.495-3.816 6.791-8.626 7.488-.289 11.826-12.826 6.507-15.263-1.059-7.856 2.583-7.247 0-10.646-2.143-1.187-4.002 2.373-4.699 3.976-6.404 1.186-5.19.064-4.88 7.311-4.286Z"/><path fill="#DCE32A" d="M276.144 159.658c-7.247-5.165 2.789-15.029 4.104-4.623-.577-6.92 9.812-9.321 9.812-1.652 4.361-5.862 15.392 4.725 2.117 4.725 8.208 3.357.769 7.566-5.74 3.641.577 6.326-8.017 1.808-10.293-2.091Zm91.93-27.733v4.957c-2.052 1.162-3.752-.232-5.323-.335.834 8.753-18.438 6.92-9.428-.31-6.99-7.179 2.63-6.404 7.376-4.312 3.976-2.892 3.816-1.55 7.375 0Z"/><path fill="#74A928" d="M1126.56 118.549c1.03-2.582 3.02-4.209 2.95-7.127-3.94 3.641-8.3 3.177-6.86 11.078 0-7.049.32-13.092-3.94-19.005 0 6.404 1.54 16.32-6.86 17.404-1.13-.697-10.46 4.286-4.94-3.15 2.34-1.395 3.69-4.312 7.89-4.751-4.59.852-9.62-1.756-12.83 2.375-1.64-2.066-3.21-6.61-6.86-8.702-1.8 3.202 1.66 7.256-4.91 8.702-2.31-4.157-2.31-8.418-7.86-11.878v15.054c-2.91 0-3.43 1.911-6.89 0 0 0-4.87-4.596-10.81-2.375-2.18 2.272-8.91 1.678-6.86 7.101-1.54-.543-5.9-3.099-8.85-3.151.32-1.317.52-2.582.96-3.95-1.05-.568-2.21-5.423-5.86-3.176-1.35 3.227-7.6 3.976-3.95 9.502-3.94-3.202-6.76-7.54-12.82-9.502-3.21 6.223 1.7 6.713 3.91 10.328-7.92-2.298-6 3.409-9.81 5.552 4.61 3.641 8.14 0 12.82 0h6.9c-8.76 1.369-4.36 4.493-6.9 7.127 6.22.929 9.91-1.446 14.75-3.176-.25 2.582 1.99 3.744 2.95 5.551 1.22-6.068 4.81-7.746 9.81-11.878 5.46-1.497 5.62 3.383 7.86 4.752v-11.878c2.63 3.486 4.87 6.171 6.89 8.702-7.85-7.747.65-2.092.97-3.151 5.1-.774 6.09.981 9.84 1.575 7.79-5.164 3.21 2.583 3.91 3.176 6.42 2.402 14.34 1.369 21.62.775 3.81-1.532 7.76-2.852 11.8-3.951 14.39-.335 9.94-3.098 1.95-7.901l.03-.052Z"/><path fill="#71A427" d="M861.153 179.385c-3.527-3.486-6.413-9.812-8.978-12.394 1.587 3.54 2.453 7.263 2.565 11.026-4.072-1.472-8.176-2.428-11.992-3.796 4.393 2.04 5.771 6.042 7.279 9.657-7.899-1.635-16.215-1.402-23.954.672 4.85.092 9.636.916 14.109 2.427-7.022.774-13.98 5.164-18.373 7.901a100.25 100.25 0 0 0 22.638-2.065 7.703 7.703 0 0 1 .449-3.77 57.429 57.429 0 0 1 5.131 3.434c4.457-1.988 4.168-5.164 5.13-8.96 2.854 0 5.291.464 8.113.697.705-2.737-.898-2.866-2.117-4.829Z"/><path fill="#E2D973" d="M1351.99 125.185c-6.96-2.246-12.83-4.26-20.53-2.814a55.837 55.837 0 0 1-1.18-19.857c-4.23 6.842-8.11 13.556-8.21 21.251-1.3-1.737-3.09-3.199-5.24-4.264-2.14-1.064-4.56-1.701-7.07-1.856-1.84 1.231-3.42 2.686-4.69 4.313-1.82-3.616-3.2-7.231-8.24-8.496-1.78 2.173-3.19 4.526-4.2 6.998a49.304 49.304 0 0 1-.57-18.902c-4.16 6.661-7.5 13.631-9.98 20.813 2.47-7.953.26-19.573 8.79-26.932-5.03 3.793-9.2 8.268-12.31 13.22.73-6.429 2.05-12.704 7.63-18.075-10.78 8.25-18.16 18.967-21.13 30.702.64-5.71.05-11.467-1.74-17.016-.75 5.145-3.18 10.037-7.05 14.176a32.876 32.876 0 0 0-.58-18.411c-.48 1.42-2.66 7.488-4.1 10.329 0-7.024-.16-14.022.58-20.658-4.21 4.03-7.36 8.699-9.28 13.729-1.91 5.03-2.55 10.319-1.88 15.553-3.56-9.167-7.8-18.592-14.66-25.977 7.02 10.51 7.79 21.51 10.55 32.613-3.69-2.674-7.83-4.908-12.31-6.636-1.16 2.242-1.57 4.691-1.19 7.101-.64 1.498 1.19 1.575 1.77 2.35-1.24-1.309-2.8-2.401-4.58-3.209a17.648 17.648 0 0 0-5.78-1.493 18.427 18.427 0 0 0-6.03.467c-1.96.484-3.77 1.284-5.32 2.35 2.47 4.519 8.59 6.481 12.82 8.03-8.27-.878-8.21 2.815-8.21 8.522 8.37-1.085 15.24-1.059 22.87-4.726 1.83 4.312 6.76 7.23 10.58 9.916 12.51 1.162 20.65-9.942 33.41-11.827.48 3.512 3.56 5.449 5.87 8.031 11.43-7.636 25.84-11.795 40.69-11.749 9.12-4.716 19.66-7.333 30.5-7.566Z"/><path fill="url(#u)" d="M1431.61 148.502c4.39-.335 7.82.569 11.73-1.885a26.54 26.54 0 0 1-2.34-8.211c-5.34-2.183-11.26-3.265-17.25-3.15 1.74-2.727 3.89-5.268 6.41-7.566-4.87 0-10.93-1.317-16.45 2.582a65.05 65.05 0 0 1 3.92-16.397c-3.72 4.984-9.62 10.949-10.2 17.662 1.6-10.244-.06-20.648-4.81-30.237a39.804 39.804 0 0 1-.8 17.662c-3.66-.594-8.79-2.582-14.11-.619a25.74 25.74 0 0 1 3.94-6.327c-4.07 1.007-8.59 3.021-13.34 2.582.77-2.995 1.67-6.765 2.38-10.096-2.63 1.575-7.44 2.815-8.63 6.946a127.63 127.63 0 0 1 3.21-18.927c-7.83 6.695-13.25 14.978-15.68 23.962.8-13.32-2.71-26.58-10.2-38.474a150.283 150.283 0 0 1 1.57 30.986c-2.05.372-4.15.588-6.25.646-.64-5.165-1.86-10.174.77-15.158-.55.62-7.67 10.329-7.06 16.397-2.59-4.7-4.17-9.27-9.39-13.247 2.75 9.044 2.49 18.514-.77 27.449-2.82-13.634-7.18-22.155-21.16-30.599 14.46 9.451 12.53 21.148 12.53 34.085-2.16-6.998-5.31-13.773-9.39-20.193 2.95 7.876 1.54 17.198 0 23.963-13.79-6.352-18.02-21.639-18.02-34.705-1.7 10.255-.07 20.688 4.71 30.289-4.41-4.642-10.9-7.71-18.09-8.547 5.81 1.369 10.49 10.329 12.54 13.247a53.51 53.51 0 0 0-19.59.646c2.05 2.401 5.96 3.047 8.59 4.415-16.83-.336-24.33 4.416-33.67 15.132 13.28 1.162 26.81-3.848 39.96-6.301a27.992 27.992 0 0 0-.77 10.096c8.58-4.249 16.03-9.821 21.93-16.396.06 3.238.85 6.441 2.34 9.45 4.7-3.621 8.91-7.638 12.54-11.981-4.07 4.545-2.72 8.005-1.57 12.627 6.41-1.162 4.17-5.164 6.25-7.592 4.88-.542 7.99 2.583 10.97 4.416-.14-8.898 2.91-17.638 8.79-25.176-3.98 7.121-5.1 15.064-3.21 22.723 2.07-4.671 5.28-8.963 9.43-12.627-3.02 4.441-1.25 11.207-.81 15.132 4.88-10.329 14.72-16.63 26.65-21.433-6.8 4.261-7.73 12.911-8.62 17.663h11.73c1.4-4.319 1.94-8.792 1.57-13.247a97.829 97.829 0 0 1 3.92 13.866c6.5-3.732 13.62-6.706 21.16-8.831-4.72 2.247-5.52 7.256-7.06 11.362 4.13-2.032 8.63-3.522 13.34-4.416 7.06 3.151 12.48 5.733 17.99 8.212l-1.63-1.86Z"/><path fill="url(#v)" d="M1349.65 166.113c10.83-3.16 21.9-5.748 33.15-7.747-13.46-.826-27.48-1.859-40.82 2.324 4.24-7.746 7.35-15.932 19.24-21.045-12.57 4.287-26.45 12.033-30.62 22.62 3.21-20.244 12.67-38.732 19.24-58.46-3.21 20.657-20.17 39.455-35.69 57.686 1.88-7.541 4.88-14.874 8.91-21.846-8.97 5.5-17.22 11.956-19.24 20.271 2.86-8.702 4.3-19.599 19.24-26.494-7.79 1.911-15.64 2.867-22.96 6.223 2.6-4.725 1.93-9.709 10.2-13.246-8.46 3.46-17.63 7.023-22.96 13.246.65-8.883 1.93-17.729 3.85-26.493-4.61 9.349-11.55 17.837-20.39 24.944-.45-3.641.93-7.359-1.29-10.897-5.8 1.498-10.58 5.165-17.86 4.674-.41-3.408 1-6.894-1.28-10.148-2.24 1.214-6.41 3.77-10.2 5.474.4-4.729 1.26-9.426 2.57-14.047-7.12 4.338-15.71 9.193-15.3 16.371v-.774l-19.24-12.472c14.59 7.256 13.44 16.681 15.3 28.068-15.01-11.129-37.45-22.93-53.55-27.294 18.92 9.399 29.85 20.348 34.44 34.292-13.31-10.742-26.01-21.923-48.45-26.494 16.7 6.792 25.65 17.353 33.15 28.844-8.43-2.712-16.38-2.35-25.65-2.35 3.85 2.969 6.06 4.751 8.95 7.023-22.45.258-32.07 13.583-36.98 25.822 22.23-1.782 38.9-9.967 54.8-18.721-1.63 5.474 4.37 9.606 7.67 13.247 9.97-4.209 20.23-10.329 29.34-14.796a54.343 54.343 0 0 0 5.1 6.223c1.5-12.007 11.7-21.639 22.92-30.392-8.53 6.868-8.91 16.061-8.91 24.944.67-6.12 8.5-10.174 14.01-14.022a49.404 49.404 0 0 0-1.25 16.371c2.31-3.408 8.82-7.746 11.48-10.148-.7 3.564 2.57 6.817 3.82 10.148 5.7-.304 11.3-1.359 16.58-3.124 2.14 6.352 9.26 10.69 15.29 15.493 4.68-4.674 4.27-9.038 5.1-14.047 9.36 15.493 36.81 14.822 54.83 14.822-1.44-7.747-7.12-9.683-16.58-14.022l.04-.051Z"/></g><defs><linearGradient id="b" x1="1168.38" x2="669.172" y1="-119.783" y2="178.12" gradientUnits="userSpaceOnUse"><stop stop-color="#C79BB0"/><stop offset=".23" stop-color="#AB95BF"/><stop offset=".74" stop-color="#9A8DB6"/><stop offset="1" stop-color="#66759A"/></linearGradient><linearGradient id="c" x1="-1.228" x2="1427.72" y1="87.718" y2="84.891" gradientUnits="userSpaceOnUse"><stop stop-color="#586685"/><stop offset=".54" stop-color="#66759A"/><stop offset="1" stop-color="#C79BB0"/></linearGradient><linearGradient id="d" x1="1152.98" x2="328.222" y1="8.046" y2="67.879" gradientUnits="userSpaceOnUse"><stop stop-color="#A291BA"/><stop offset="1" stop-color="#5A6989"/></linearGradient><linearGradient id="e" x1="501.502" x2="239.557" y1="-320.507" y2="106.228" gradientUnits="userSpaceOnUse"><stop stop-color="#C79BB0"/><stop offset=".23" stop-color="#AB95BF"/><stop offset=".46" stop-color="#9A8DB6"/><stop offset="1" stop-color="#66759A"/></linearGradient><linearGradient id="f" x1="964.053" x2="1293.71" y1="41.316" y2="47.925" gradientUnits="userSpaceOnUse"><stop stop-color="#7B7D9F"/><stop offset="1" stop-color="#988CB3"/></linearGradient><linearGradient id="g" x1="1281.89" x2="318.336" y1="-48.117" y2="128.631" gradientUnits="userSpaceOnUse"><stop stop-color="#F5EAFF"/><stop offset="1" stop-color="#ABB1C4"/></linearGradient><linearGradient id="h" x1="1301.93" x2="373.27" y1="71.827" y2="321.853" gradientUnits="userSpaceOnUse"><stop stop-color="#F5EAFF"/><stop offset="1" stop-color="#ABB1C4"/></linearGradient><linearGradient id="i" x1="1096.68" x2="597.123" y1="-242.951" y2="55.495" gradientUnits="userSpaceOnUse"><stop stop-color="#C79BB0"/><stop offset=".23" stop-color="#AB95BF"/><stop offset=".74" stop-color="#9A8DB6"/><stop offset="1" stop-color="#53607E"/></linearGradient><linearGradient id="j" x1="1429.84" x2="998.837" y1="23.783" y2="4.166" gradientUnits="userSpaceOnUse"><stop stop-color="#D9B1B7"/><stop offset="1" stop-color="#B898B8"/></linearGradient><linearGradient id="k" x1="252.125" x2="251.736" y1="10.659" y2="23.584" gradientUnits="userSpaceOnUse"><stop stop-color="#C5C5D9"/><stop offset="1" stop-color="#AAA296"/></linearGradient><linearGradient id="l" x1="1291.19" x2="385.092" y1="14.404" y2="299.78" gradientUnits="userSpaceOnUse"><stop stop-color="#F5EAFF"/><stop offset="1" stop-color="#ABB1C4"/></linearGradient><linearGradient id="m" x1="1295.62" x2="389.519" y1="28.514" y2="313.89" gradientUnits="userSpaceOnUse"><stop stop-color="#F5EAFF"/><stop offset="1" stop-color="#ABB1C4"/></linearGradient><linearGradient id="n" x1="1287.44" x2="381.341" y1="2.484" y2="287.86" gradientUnits="userSpaceOnUse"><stop stop-color="#F5EAFF"/><stop offset="1" stop-color="#ABB1C4"/></linearGradient><linearGradient id="o" x1="1300.43" x2="394.329" y1="43.76" y2="329.136" gradientUnits="userSpaceOnUse"><stop stop-color="#F5EAFF"/><stop offset="1" stop-color="#ABB1C4"/></linearGradient><linearGradient id="p" x1="412.23" x2="391.017" y1="15.335" y2="108.438" gradientUnits="userSpaceOnUse"><stop stop-color="#C5C5D9"/><stop offset="1" stop-color="#AAA296"/></linearGradient><linearGradient id="q" x1="220.636" x2="199.423" y1="-28.322" y2="64.78" gradientUnits="userSpaceOnUse"><stop stop-color="#C5C5D9"/><stop offset="1" stop-color="#AAA296"/></linearGradient><linearGradient id="r" x1="474.791" x2="452.023" y1="57.002" y2="153.263" gradientUnits="userSpaceOnUse"><stop stop-color="#C5C5D9"/><stop offset="1" stop-color="#AAA296"/></linearGradient><linearGradient id="s" x1="169.891" x2="1374.34" y1="214.555" y2="48.064" gradientUnits="userSpaceOnUse"><stop stop-color="#4D912B"/><stop offset=".54" stop-color="#85B736"/><stop offset="1" stop-color="#CACB3A"/></linearGradient><linearGradient id="t" x1="819.878" x2="818.652" y1="135.377" y2="151.309" gradientUnits="userSpaceOnUse"><stop stop-color="#DEE0E8"/><stop offset="1" stop-color="#9DBA43"/></linearGradient><linearGradient id="u" x1="1350.48" x2="1346.05" y1="113.359" y2="159.035" gradientUnits="userSpaceOnUse"><stop stop-color="#B8B715"/><stop offset="1" stop-color="#C8CB3A"/></linearGradient><linearGradient id="v" x1="1274.77" x2="1241.39" y1="144.556" y2="203.447" gradientUnits="userSpaceOnUse"><stop stop-color="#CBD73F"/><stop offset="1" stop-color="#B5C539"/></linearGradient><clipPath id="a"><path fill="#fff" d="M0 0h1440v228H0z"/></clipPath></defs></svg>